<?xml version="1.0" encoding="UTF-8" standalone="no" ?>
<!DOCTYPE svg PUBLIC "-//W3C//DTD SVG 1.1//EN" "http://www.w3.org/Graphics/SVG/1.1/DTD/svg11.dtd">
<svg xmlns="http://www.w3.org/2000/svg" xmlns:xlink="http://www.w3.org/1999/xlink" version="1.1" width="1080" height="1080" viewBox="0 0 1080 1080" xml:space="preserve">
<desc>Created with Fabric.js 5.2.4</desc>
<defs>
</defs>
<g transform="matrix(1 0 0 1 540 540)" id="774e49cb-97f9-47b1-9623-99509323235b"  >
<rect style="stroke: none; stroke-width: 1; stroke-dasharray: none; stroke-linecap: butt; stroke-dashoffset: 0; stroke-linejoin: miter; stroke-miterlimit: 4; fill: rgb(255,255,255); fill-rule: nonzero; opacity: 1; visibility: hidden;" vector-effect="non-scaling-stroke"  x="-540" y="-540" rx="0" ry="0" width="1080" height="1080" />
</g>
<g transform="matrix(1 0 0 1 540 540)" id="680bc905-c0d7-4410-a6a6-d64c76831d1c"  >
</g>
<g transform="matrix(1 0 0 1 540 540)"  >
<g style="" vector-effect="non-scaling-stroke"   >
		<g transform="matrix(1 0 0 1 0 -2.45)"  >
<path style="stroke: none; stroke-width: 1; stroke-dasharray: none; stroke-linecap: butt; stroke-dashoffset: 0; stroke-linejoin: miter; stroke-miterlimit: 4; fill: rgb(255,255,255); fill-rule: nonzero; opacity: 1;" vector-effect="non-scaling-stroke"  transform=" translate(-8, -5.55)" d="M 4.1 1 L 1.8 1 L 1.8 3.6 L 3.3 5 L 3.3 2.5 L 4.1 2.5 C 4.6 2.5 4.8999999999999995 2.8 4.8999999999999995 3.1 L 4.8999999999999995 5 C 4.8999999999999995 5.4 4.6 5.7 4.1 5.7 L 1.8 5.7 L 1.8 7.2 L 4.1 7.2 C 5.3 7.2 6.5 6.6000000000000005 6.5 5.2 L 6.5 3.2 C 6.5 1.7 5.3 1 4.1 1 z M 1.8 7.4 L 14.200000000000001 7.4 L 14.200000000000001 10.100000000000001 L 1.8 10.100000000000001 z" stroke-linecap="round" />
</g>
		<g transform="matrix(1 0 0 1 0.05 0.8)"  >
<path style="stroke: none; stroke-width: 1; stroke-dasharray: none; stroke-linecap: butt; stroke-dashoffset: 0; stroke-linejoin: miter; stroke-miterlimit: 4; fill: rgb(255,255,255); fill-rule: nonzero; opacity: 1;" vector-effect="non-scaling-stroke"  transform=" translate(-8.05, -8.8)" d="M 6.7 2.6 L 9.4 2.6 L 9.4 15 L 6.7 15 z" stroke-linecap="round" />
</g>
</g>
</g>
<g transform="matrix(2.63 0 0 2.63 540 558.2)" style="" id="79c249d2-e4a7-4855-9520-3d93c95c433b"  >
		<text xml:space="preserve" font-family="Raleway" font-size="200" font-style="normal" font-weight="900" style="stroke: none; stroke-width: 1; stroke-dasharray: none; stroke-linecap: butt; stroke-dashoffset: 0; stroke-linejoin: miter; stroke-miterlimit: 4; fill: rgb(89,129,146); fill-rule: nonzero; opacity: 1; white-space: pre;" ><tspan x="-204.1" y="62.83" >D</tspan><tspan x="-77.9" y="62.83" >M</tspan><tspan x="75.9" y="62.83" style="white-space: pre; "> </tspan><tspan x="103.9" y="62.83" >s</tspan></text>
</g>
</svg>